<?xml version="1.0" standalone="no"?><!DOCTYPE svg PUBLIC "-//W3C//DTD SVG 1.1//EN" "http://www.w3.org/Graphics/SVG/1.1/DTD/svg11.dtd"><svg t="1721016908939" class="icon" viewBox="0 0 1312 1024" version="1.1" xmlns="http://www.w3.org/2000/svg" p-id="4302" xmlns:xlink="http://www.w3.org/1999/xlink" width="256.25" height="200"><path d="M1192.539897 146.090667a56.713846 56.713846 0 0 0-39.909743-18.038154l-432.022975-16.804103-32.295384 71.548718 44.950974 133.12-81.079795 151.18441 32.925539 121.961026 82.366359 104.500513 119.099077-107.625026c11.395282-10.581333 29.774769-9.951179 39.909743 1.864205l152.65477 162.395898c10.765128 11.185231 10.134974 29.223385-1.260308 39.804718-5.697641 4.988718-12.681846 8.086974-20.269949 7.45682l-418.737231-16.173948-20.900102 59.103179 22.81682 52.88041 481.437539 18.064411c31.665231 1.234051 58.289231-23.026872 58.919384-54.140718l26.597744-670.667488c0.630154-14.939897-4.437333-29.853538-15.202462-40.434871zM883.396923 454.052103c-47.524103-1.864205-84.256821-41.065026-82.340102-87.092513 1.890462-46.683897 41.800205-82.760205 88.667897-80.869744 46.893949 1.837949 84.283077 41.038769 82.366359 87.066257-1.916718 46.053744-41.800205 82.760205-88.694154 80.869743zM572.993641 840.992821l14.572308-62.227693-340.178052 23.026872a27.779282 27.779282 0 0 1-30.404923-25.494974 27.254154 27.254154 0 0 1 6.957949-20.532513l252.140308-284.330667c5.067487-6.222769 12.65559-9.321026 20.900102-9.321025 7.614359 0 15.202462 3.098256 20.900103 8.717128l84.25682 86.462359-36.102564-92.081231 64.59077-159.271385-58.893129-127.527384L595.810462 105.025641 132.069744 136.743385a56.267487 56.267487 0 0 0-53.221744 59.733333L125.768205 867.144205c0.65641 14.939897 7.614359 28.619487 19.639795 37.966769 11.421538 9.951179 25.993846 14.913641 41.196308 13.653334l414.299897-27.963077-27.884308-49.782154z" fill="#D8DCE6" p-id="4303"></path></svg>