<?xml version="1.0" standalone="no"?><!DOCTYPE svg PUBLIC "-//W3C//DTD SVG 1.1//EN" "http://www.w3.org/Graphics/SVG/1.1/DTD/svg11.dtd"><svg t="1721018549796" class="icon" viewBox="0 0 1024 1024" version="1.1" xmlns="http://www.w3.org/2000/svg" p-id="20726" xmlns:xlink="http://www.w3.org/1999/xlink" width="200" height="200"><path d="M219.904 551.893333c13.44-4.48 27.285333-8.64 41.792-12.544a3986.56 3986.56 0 0 0-4.266667-48.469333h-0.661333c-13.312-19.669333-21.418667-33.258667-24.490667-40.789333a81.813333 81.813333 0 0 0-19.541333-28.970667c-23.424-22.08-62.528-41.728-84.757333-5.376-22.741333 37.162667 5.589333 81.6 84.757333 133.162667l7.168 2.986666z m-49.066667 18.986667a399.061333 399.061333 0 0 0-6.4-4.864c-23.957333-18.986667-50.688-51.712-59.2-62.08-27.669333-33.664-28.608-97.877333 0-127.637333 19.029333-19.797333 38.826667-28.16 59.2-25.045334 17.962667 2.56 32.725333 7.402667 44.16 14.4 6.784 4.181333 13.056 8.341333 18.773334 12.522667 3.712 2.688 7.04 5.930667 9.962666 9.301333a80.853333 80.853333 0 0 1-3.584-8.490666c-1.322667-3.904-2.794667-10.773333-4.266666-20.736 6.122667-67.456 95.146667-105.301333 267.285333-112.981334 163.242667-2.944 259.413333 23.978667 288.554667 80.938667 1.066667 2.133333 1.877333 4.437333 2.133333 6.72 0.938667 6.186667 0.661333 12.8-0.661333 19.541333-2.538667 12.373333-4.8 18.837333-7.466667 26.666667-2.922667 4.288-6.101333 58.432-9.557333 162.112 133.973333 37.290667 222.698667 102.613333 222.698666 176.917333 0 115.669333-214.997333 209.514667-480.277333 209.514667-265.28 0-480.256-93.866667-480.256-209.493333 0-57.514667 53.077333-109.482667 138.88-147.328z" fill="#FFFFFF" p-id="20727"></path><path d="M512.213333 960c-135.317333 0-262.101333-23.424-357.098666-66.133333C55.061333 848.938667 0 786.56 0 718.186667c0-32.725333 12.373333-63.957333 36.586667-92.906667 19.029333-22.762667 45.098667-43.626667 77.696-62.208l-0.405334-0.405333a621.226667 621.226667 0 0 1-20.352-22.613334c-4.522667-5.248-7.04-8.362667-12.906666-15.488-38.442667-46.997333-37.653333-130.069333 1.728-170.88 26.218667-27.2 56.149333-39.04 86.741333-34.346666 12.650667 1.92 24.213333 4.736 34.730667 8.490666 11.968-33.258667 40.448-59.52 84.736-78.229333 48.426667-20.458667 116.16-32.426667 206.890666-36.608h0.789334c87.530667-1.621333 155.264 4.970667 207.146666 20.053333 54.826667 16.021333 91.925333 42.282667 110.293334 78.229334 2.645333 5.248 4.522667 10.901333 5.44 16.853333 1.472 9.941333 1.194667 20.437333-1.066667 30.933333a194.133333 194.133333 0 0 1-3.989333 16.32c-0.917333 3.093333-1.706667 6.058667-3.050667 9.813334l-1.472 4.309333-0.128 0.277333c-0.128 1.066667-0.405333 2.688-0.661333 5.376a860.373333 860.373333 0 0 0-2.261334 29.76 4415.146667 4415.146667 0 0 0-4.138666 92.501334C943.509333 561.834667 1024 634.56 1024 718.165333c0 68.416-55.082667 130.752-155.114667 175.722667C774.293333 936.533333 647.509333 960 512.192 960zM156.16 350.570667c-17.557333 0-34.581333 8.618667-50.944 25.6-28.074667 29.077333-28.074667 93.568 0 127.637333 5.845333 7.125333 8.106667 9.962667 12.501333 14.933333 6.784 7.957333 13.034667 14.954667 19.157334 21.418667 5.184 5.525333 10.24 10.496 14.890666 14.933333l17.045334 15.893334-20.757334 10.517333c-38.058667 19.242667-67.328 41.066667-87.274666 64.768-19.157333 22.890667-28.864 47.125333-28.864 71.893333 0 54.805333 48.426667 106.773333 136.234666 146.24 90.858667 40.789333 213.12 63.274667 344.021334 63.274667 130.922667 0 253.184-22.485333 344.042666-63.274667 87.808-39.466667 136.234667-91.306667 136.234667-146.24 0-69.482667-78.762667-134.378667-210.602667-173.44l-11.84-3.477333 0.405334-12.522667c1.6-45.525333 3.050667-81.066667 4.522666-105.706666 0.789333-13.461333 1.6-23.978667 2.389334-31.232 0.405333-3.776 0.810667-6.613333 1.194666-8.618667l0.277334-1.365333 0.917333-2.56c0.938667-2.944 1.066667-3.093333 1.344-4.032 1.066667-3.370667 1.856-5.930667 2.645333-8.618667 1.216-4.309333 2.261333-8.746667 3.328-13.994667a53.973333 53.973333 0 0 0 0.682667-19.52 22.122667 22.122667 0 0 0-2.133333-6.741333c-14.250667-27.733333-44.842667-48.597333-90.88-62.08-48.277333-14.272-114.794667-20.586667-197.952-18.986667-85.674667 3.776-151.530667 15.36-195.84 34.069334-41.898667 17.770667-65.706667 42.56-70.634667 73.664l-3.605333 22.890666-19.946667-11.456c-11.050667-6.314667-25.28-10.773333-42.176-13.184a58.602667 58.602667 0 0 0-8.384-0.682666z m61.994667 247.36l-17.706667-53.994667-2.24-1.216 1.066667-2.56-0.128-0.533333c-32.064-22.229333-54.421333-43.221333-66.794667-62.613334-14.101333-22.08-15.424-42.688-4.117333-61.141333 9.962667-16.277333 24.064-22.890667 42.026666-19.242667 13.568 2.688 29.141333 11.712 42.837334 24.490667 5.333333 4.992 9.984 10.922667 13.845333 17.386667 2.261333 3.754667 3.84 7.125333 5.717333 11.584 2.133333 5.376 7.04 13.866667 14.378667 25.578666l26.602667-2.56v48.064l8.512 32.725334-47.232 4.053333-16.768 39.978667z m-57.066667-170.069334c-2.005333 0-3.328 1.066667-5.845333 4.992-3.072 5.12-5.589333 11.712 3.84 26.666667 7.466667 11.690667 24.618667 31.082667 63.872 57.472 1.6-0.533333 3.050667-0.938667 4.650666-1.472-0.405333-4.309333-0.789333-8.490667-1.066666-12.373333-12.629333-19.136-19.946667-31.658667-23.68-40.810667a45.930667 45.930667 0 0 0-3.584-7.253333 48.512 48.512 0 0 0-8.256-10.389334c-9.173333-8.618667-19.690667-14.933333-27.264-16.554666a19.754667 19.754667 0 0 0-2.666667-0.277334z" fill="#1465FF" p-id="20728"></path><path d="M268.224 630.784c-50.688-28.693333-85.290667-50.218667-103.765333-64.896-23.957333-18.986667-50.688-51.712-59.221334-62.08-27.669333-33.664-28.586667-97.898667 0-127.658667 19.029333-19.776 38.848-28.138667 59.221334-25.045333 17.941333 2.56 32.725333 7.424 44.16 14.421333 6.784 4.16 13.034667 8.341333 18.773333 12.522667 3.584 2.688 6.762667 5.653333 9.557333 8.874667-1.066667-2.56-2.133333-5.12-3.2-8.064-1.322667-3.904-2.773333-10.773333-4.245333-20.736 1.6-71.786667 88.469333-111.637333 260.629333-119.445334 163.093333-2.965333 261.546667 25.984 295.082667 87.125334 1.322667 2.282667 2.133333 4.842667 2.517333 7.530666 0.810667 6.058667 0.533333 12.373333-0.789333 18.986667-2.538667 12.373333-4.8 18.858667-7.466667 26.666667-4.266667 6.186667-8.896 113.770667-14.08 322.624a68.458667 68.458667 0 0 1-11.989333 37.162666c-42.453333 61.525333-125.866667 91.434667-250.368 89.813334-142.08-6.997333-218.048-43.498667-228.053333-109.482667-2.368-31.786667-4.629333-61.248-6.762667-88.32z m-4.906667-60.458667a7492.181333 7492.181333 0 0 0-7.210666-80.917333c-8.64-16.981333-14.506667-28.949333-17.429334-36.224-1.578667-3.904-13.290667-20.202667-25.664-31.914667-23.424-22.08-62.528-41.749333-84.757333-5.397333-22.741333 37.162667 5.589333 81.6 84.757333 133.184l50.282667 21.269333z" fill="#EDF3FF" p-id="20729"></path><path d="M512.213333 861.162667h-10.773333c-75.968-3.776-133.44-15.488-175.744-35.669334-48.021333-23.04-75.712-57.109333-82.218667-101.269333l-0.277333-2.410667c-1.856-25.173333-3.712-49.152-5.44-71.253333-44.437333-25.429333-74.901333-44.821333-93.013333-59.093333a287.957333 287.957333 0 0 1-10.88-9.301334 374.186667 374.186667 0 0 1-19.968-19.52 621.226667 621.226667 0 0 1-20.352-22.613333c-4.522667-5.248-7.04-8.362667-12.906667-15.488-38.464-46.997333-37.653333-130.069333 1.706667-170.88 26.24-27.2 56.170667-39.04 86.762666-34.346667a178.666667 178.666667 0 0 1 33.130667 7.957334c12.906667-42.816 49.621333-68.138667 80.341333-82.261334 47.637333-21.952 114.944-34.474667 206.08-38.656h0.810667c177.6-3.221333 283.498667 30.72 323.541333 103.829334 3.2 5.781333 5.333333 12.117333 6.250667 18.709333 1.322667 9.685333 0.938667 19.925333-1.194667 30.165333a194.133333 194.133333 0 0 1-3.989333 16.298667c-0.938667 3.093333-1.728 6.058667-3.072 9.813333-0.384 1.216-0.384 1.216-1.450667 4.309334l-0.128 0.277333c0 0.256-0.149333 0.533333-0.149333 0.938667-0.256 2.282667-0.789333 6.741333-1.450667 14.677333-1.066667 13.738667-2.261333 34.197333-3.328 60.586667-2.389333 53.333333-4.8 132.906667-7.466666 236.714666a101.866667 101.866667 0 0 1-17.685334 54.826667c-24.746667 35.797333-61.184 62.72-108.288 79.957333-42.965333 15.765333-96.448 23.701333-158.848 23.701334z m-9.322666-32.32c62.677333 0.810667 115.754667-6.464 157.525333-21.802667 40.853333-14.933333 72.106667-37.845333 92.864-68.010667a67.370667 67.370667 0 0 0 11.968-37.162666c2.538667-103.936 5.056-183.786667 7.466667-237.376 1.194667-26.794667 2.24-47.530667 3.456-61.653334 0.533333-7.146667 1.066667-12.672 1.578666-16.576 0.149333-1.344 0.426667-2.56 0.533334-3.370666l0.277333-1.066667 0.789333-2.56c0.938667-2.986667 1.066667-3.114667 1.344-4.053333 1.066667-3.370667 1.856-5.930667 2.645334-8.618667 1.194667-4.309333 2.261333-8.746667 3.328-13.994667 1.344-6.613333 1.6-13.056 0.810666-18.986666a21.034667 21.034667 0 0 0-2.538666-7.552c-16.362667-29.866667-48.682667-52.373333-96.042667-66.773334-49.237333-15.082667-116.266667-21.952-199.04-20.330666-85.674667 3.904-150.997333 15.893333-194.24 35.818666-40.576 18.56-62.656 44.693333-65.834667 77.290667l-2.410666 24.490667-21.290667-11.968c-11.029333-6.186667-25.130667-10.666667-41.770667-13.077334-20.352-3.093333-40.32 5.248-59.328 24.917334-28.074667 29.077333-28.074667 93.44 0 127.658666 5.845333 7.125333 8.106667 9.962667 12.501334 14.933334 6.784 7.957333 13.034667 14.933333 19.157333 21.418666 6.4 6.72 12.501333 12.650667 18.090667 17.770667 3.2 2.965333 6.4 5.653333 9.450666 7.936 17.557333 13.866667 49.898667 34.197333 96.32 60.736l7.466667 4.16 0.64 8.618667c1.877333 24.533333 4.010667 51.306667 6.122667 79.850666 4.928 32.853333 26.624 58.709333 64.405333 76.885334 38.037333 17.92 93.12 28.949333 163.754667 32.448zM263.424 570.325333L213.013333 548.906667l-1.194666-0.810667c-38.848-25.429333-65.6-49.28-79.424-71.210667-14.101333-22.101333-15.445333-42.688-4.138667-61.141333 9.984-16.298667 24.106667-22.890667 42.048-19.264 13.568 2.709333 29.141333 11.733333 42.837333 24.533333 5.461333 5.098667 11.434667 11.84 16.896 18.986667 2.261333 2.816 4.266667 5.632 5.845334 8.064 0.810667 1.066667 1.344 2.133333 1.877333 2.965333l0.789333 1.344 0.405334 0.938667c2.773333 6.869333 8.106667 18.048 15.829333 33.130667l1.472 2.688 0.256 3.093333c1.472 14.933333 3.050667 32.192 4.650667 51.306667l2.261333 26.794666z m-102.293333-142.464c-2.005333 0-3.328 1.066667-5.866667 4.992-3.050667 5.12-5.589333 11.712 3.861333 26.666667 7.722667 12.096 25.813333 32.298667 67.712 60.16a1903.872 1903.872 0 0 0-1.984-20.864 596.437333 596.437333 0 0 1-15.04-31.786667 173.973333 173.973333 0 0 0-5.056-6.997333 143.104 143.104 0 0 0-13.568-15.210667c-9.173333-8.618667-19.690667-14.933333-27.264-16.554666a12.565333 12.565333 0 0 0-2.794666-0.405334z" fill="#1465FF" p-id="20730"></path><path d="M443.029333 819.157333c99.52 15.744 175.872 10.24 228.970667-16.832 53.077333-27.072 84.053333-55.893333 92.714667-86.442666l5.866666-181.376c-9.856 102.613333-26.346667 165.76-49.493333 189.589333-34.730667 35.818667-54.549333 49.962667-103.509333 70.144-32.597333 13.333333-90.730667 21.674667-174.549334 24.917333z" fill="#C0D6FF" p-id="20731"></path><path d="M506.24 429.077333c130.624 0 236.522667-33.130667 236.522667-74.069333 0-40.917333-105.898667-82.261333-236.544-82.261333-130.645333 0-236.544 41.344-236.544 82.261333 0 40.96 105.898667 74.069333 236.544 74.069333z" fill="#FFBF1C" p-id="20732"></path><path d="M506.24 445.226667c-64.810667 0-125.866667-7.936-172.032-22.485334-36.714667-11.434667-80.490667-32.426667-80.490667-67.733333 0-27.584 28.330667-53.034667 79.829334-71.765333 47.765333-17.237333 109.077333-26.794667 172.544-26.794667 63.466667 0 124.928 9.429333 172.544 26.794667 51.498667 18.581333 79.829333 44.032 79.829333 71.765333 0 35.285333-43.776 56.298667-80.490667 67.882667-46.016 14.4-107.093333 22.336-171.733333 22.336z m0-156.330667c-59.093333 0-118.144 9.024-161.92 24.917333-46.442667 16.704-58.666667 34.346667-58.666667 41.194667 0 4.309333 4.394667 10.112 12.096 15.765333 10.389333 7.68 26.218667 14.933333 46.037334 21.12 43.242667 13.482667 100.842667 21.013333 162.56 21.013334 61.738667 0 119.338667-7.402667 162.581333-20.992 19.690667-6.186667 35.669333-13.461333 46.037333-21.141334 7.722667-5.653333 12.096-11.456 12.096-15.765333 0-6.997333-12.224-24.490667-58.666666-41.173333-44.032-15.914667-103.104-24.938667-162.176-24.938667z" fill="#1465FF" p-id="20733"></path><path d="M134.634667 356.48c-16.768 5.952-30.869333 19.669333-42.304 41.365333-9.856 17.898667-9.6 58.026667 0 83.477334 2.517333 6.613333 8.106667 15.082667 17.024 25.301333-9.706667-47.253333-9.706667-81.578667 0-102.869333 9.706667-21.269333 18.090667-37.013333 25.28-47.253334zM375.04 367.274667c-40.448-33.536-60.8-64.64-61.077333-93.44-0.384-43.242667 45.909333-66.538667 45.909333-86.186667 0-13.205333-15.296-43.349333-45.909333-90.752 45.504 20.736 74.112 43.754667 85.824 68.928 17.557333 37.845333-9.856 45.653333 0 77.013333 6.656 20.906667-3.2 36.096-29.397334 45.525334l4.650667 78.912z" fill="#FFFFFF" p-id="20734"></path><path d="M375.04 378.709333a12.010667 12.010667 0 0 1-7.189333-2.56c-43.52-36.074667-64.917333-69.610667-65.194667-102.186666-0.256-30.293333 18.624-51.712 32.341333-67.328 5.717333-6.464 13.568-15.36 13.568-18.986667 0-4.842667-4.266667-22.890667-44.032-84.565333a11.456 11.456 0 0 1 0.917334-13.738667 10.986667 10.986667 0 0 1 13.184-2.944c48.554667 22.08 78.485333 46.442667 91.392 74.453333 11.584 24.917333 6.4 40.256 2.261333 52.650667-2.922667 8.874667-5.056 15.210667-1.728 25.856 4.650667 14.528 6.506667 40.533333-28.48 56.533333l4.138667 70.826667c0.256 4.586667-2.133333 8.746667-6.122667 10.922667a13.098667 13.098667 0 0 1-5.056 1.066666zM345.770667 126.784c22.08 37.845333 25.408 52.522667 25.408 60.864 0 12.245333-8.917333 22.485333-19.285334 34.197333-12.650667 14.293333-26.88 30.570667-26.624 51.84 0.149333 20.202667 12.650667 42.410667 36.864 66.645334l-3.072-51.413334a11.541333 11.541333 0 0 1 7.466667-11.456c29.013333-10.496 24.597333-24.512 22.485333-31.232-5.589333-17.792-1.472-30.165333 1.856-40.128 3.584-10.517333 6.4-18.858667-1.322666-35.562666-7.04-15.082667-21.696-29.866667-43.776-43.733334z" fill="#1465FF" p-id="20735"></path><path d="M441.557333 864.256c52.266667 9.557333 128.384 9.962667 199.296-2.410667 117.738667-20.48 159.637333-57.365333 183.04-102.08 7.338667-14.122667 11.306667-37.973333 4.544-64.64-3.2-12.501333-12.778667-33.365333-28.608-62.314666l-3.456 79.146666a55.957333 55.957333 0 0 1-2.005333 12.394667c-5.589333 19.541333-14.506667 35.690667-26.325333 48.213333-20.629333 21.824-29.141333 27.882667-41.642667 34.346667-85.418667 44.416-129.066667 54.933333-224.32 54.933333-63.573333 0-130.368-16.853333-200.618667-50.346666 30.72 23.808 77.568 41.322667 140.096 52.757333z" fill="#EDF3FF" p-id="20736"></path><path d="M594.816 395.818667h-0.789333c-34.730667-3.093333-45.909333-22.485333-49.109334-38.101334-4.650667-22.613333 4.266667-40.405333 25.685334-51.434666a8.533333 8.533333 0 0 1 11.584 3.754666 8.746667 8.746667 0 0 1-3.733334 11.733334c-14.506667 7.530667-19.690667 17.493333-16.64 32.298666 1.877333 9.301333 7.466667 21.824 33.792 24.234667 4.8 0.426667 8.256 4.714667 7.850667 9.429333a8.810667 8.810667 0 0 1-8.64 8.085334z" fill="#1465FF" p-id="20737"></path><path d="M313.962667 442.944c61.994667 29.226667 128.128 43.904 198.229333 43.904 70.122667 0 139.434667-18.581333 207.957333-55.893333-93.802667 23.296-162.986667 35.690667-207.957333 37.034666-44.821333 1.344-110.933333-6.997333-198.229333-25.045333z" fill="#FFFFFF" p-id="20738"></path><path d="M798.890667 113.194667a27.306667 27.306667 0 0 1 5.333333 37.973333L652.16 355.413333a19.925333 19.925333 0 0 1-27.946667 4.053334l-10.901333-8.362667a20.48 20.48 0 0 1-3.989333-28.266667l152.064-204.266666a26.56 26.56 0 0 1 37.504-5.376z" fill="#EDF3FF" p-id="20739"></path><path d="M636.181333 376.832c-6.912 0-13.952-2.154667-19.946666-6.741333l-10.901334-8.341334a33.92 33.92 0 0 1-6.528-47.146666l151.936-204.117334a39.786667 39.786667 0 0 1 56.149334-7.936c17.685333 13.461333 21.141333 39.04 7.829333 56.832l-151.914667 204.117334a33.066667 33.066667 0 0 1-26.624 13.333333z m146.624-255.573333a13.482667 13.482667 0 0 0-10.773333 5.397333l-152.064 204.117333a6.72 6.72 0 0 0 1.194667 9.429334l10.901333 8.341333c2.922667 2.304 7.04 1.621333 9.322667-1.344l152.192-203.989333a13.674667 13.674667 0 0 0-2.666667-19.114667 12.458667 12.458667 0 0 0-8.106667-2.837333z" fill="#1465FF" p-id="20740"></path></svg>