<?xml version="1.0" standalone="no"?><!DOCTYPE svg PUBLIC "-//W3C//DTD SVG 1.1//EN" "http://www.w3.org/Graphics/SVG/1.1/DTD/svg11.dtd"><svg t="1721018449865" class="icon" viewBox="0 0 1024 1024" version="1.1" xmlns="http://www.w3.org/2000/svg" p-id="19440" xmlns:xlink="http://www.w3.org/1999/xlink" width="200" height="200"><path d="M273.066667 514.844444h122.311111c68.266667 0 125.155556-56.888889 125.155555-125.155555V241.777778c0-102.4-82.488889-184.888889-184.888889-184.888889-105.244444 0-187.733333 82.488889-187.733333 184.888889v150.755555c0 68.266667 54.044444 122.311111 125.155556 122.311111z" fill="#89664C" p-id="19441"></path><path d="M187.733333 580.266667c19.911111-19.911111 36.977778-39.822222 48.355556-65.422223 11.377778-22.755556 17.066667-45.511111 19.911111-71.111111h150.755556c5.688889 51.2 31.288889 99.555556 68.266666 136.533334 2.844444 133.688889-287.288889 133.688889-287.288889 0z" fill="#F4C534" p-id="19442"></path><path d="M187.733333 315.733333a182.044444 145.066667 90 1 0 290.133334 0 182.044444 145.066667 90 1 0-290.133334 0Z" fill="#FFD93B" p-id="19443"></path><path d="M381.155556 182.044444c-48.355556-36.977778-73.955556-28.444444-73.955556-28.444444-85.333333 5.688889-76.8 108.088889-76.8 108.088889-5.688889-25.6 0-65.422222 0-65.422222s-11.377778 28.444444-11.377778 122.311111c0 19.911111-17.066667 56.888889-14.222222 82.488889l-25.6-17.066667c-2.844444-45.511111 0-85.333333 2.844444-105.244444 8.533333-65.422222 22.755556-219.022222 156.444445-219.022223 133.688889-2.844444 187.733333 167.822222 170.666667 275.911111-14.222222 108.088889-91.022222 128-91.022223 128 34.133333-31.288889 42.666667-71.111111 42.666667-71.111111-8.533333 11.377778-17.066667 19.911111-25.6 28.444445 48.355556-65.422222 22.755556-159.288889 22.755556-159.288889s-28.444444-39.822222-76.8-79.644445z" fill="#89664C" p-id="19444"></path><path d="M56.888889 640v287.288889c0 22.755556 17.066667 39.822222 39.822222 39.822222h512V640c0-48.355556-28.444444-91.022222-73.955555-108.088889-45.511111-17.066667-99.555556-36.977778-113.777778-39.822222-2.844444 54.044444-39.822222 96.711111-88.177778 96.711111-45.511111 0-85.333333-42.666667-88.177778-96.711111-14.222222 2.844444-68.266667 19.911111-113.777778 39.822222C85.333333 548.977778 56.888889 591.644444 56.888889 640z" fill="#65B1EF" p-id="19445"></path><path d="M546.133333 580.266667c19.911111-19.911111 36.977778-39.822222 48.355556-65.422223 11.377778-22.755556 17.066667-45.511111 19.911111-71.111111h150.755556c5.688889 51.2 31.288889 99.555556 68.266666 136.533334 2.844444 133.688889-287.288889 133.688889-287.288889 0z" fill="#F4C534" p-id="19446"></path><path d="M582.376695 325.311306a48.355556 28.444444 78.932 1 0-55.830758 10.92118 48.355556 28.444444 78.932 1 0 55.830758-10.92118Z" fill="#FFD93B" p-id="19447"></path><path d="M850.191627 335.959457a28.444444 48.355556 11.068 1 0-55.830757-10.921181 28.444444 48.355556 11.068 1 0 55.830757 10.921181Z" fill="#FFD93B" p-id="19448"></path><path d="M537.6 307.2a182.044444 142.222222 90 1 0 284.444444 0 182.044444 142.222222 90 1 0-284.444444 0Z" fill="#FFD93B" p-id="19449"></path><path d="M551.822222 327.111111c-5.688889-51.2 2.844444-76.8 25.6-110.933333 0 0 110.933333 73.955556 227.555556 36.977778l2.844444 91.022222s36.977778-62.577778 28.444445-139.377778c-22.755556-176.355556-221.866667-162.133333-253.155556-65.422222-54.044444-36.977778-73.955556 82.488889-31.288889 187.733333z" fill="#3E4347" p-id="19450"></path><path d="M412.444444 640V967.111111h514.844445c22.755556 0 39.822222-17.066667 39.822222-39.822222V640c0-48.355556-28.444444-91.022222-73.955555-108.088889-45.511111-17.066667-99.555556-36.977778-113.777778-39.822222-2.844444 54.044444-39.822222 96.711111-88.177778 96.711111-48.355556 0-85.333333-42.666667-88.177778-96.711111-14.222222 2.844444-68.266667 19.911111-113.777778 39.822222-45.511111 17.066667-76.8 59.733333-76.8 108.088889z" fill="#7FB239" p-id="19451"></path><path d="M187.733333 657.066667a136.533333 133.688889 0 1 0 273.066667 0 136.533333 133.688889 0 1 0-273.066667 0Z" fill="#3E4347" p-id="19452"></path><path d="M415.288889 839.111111c-14.222222-11.377778-22.755556-25.6-31.288889-42.666667-5.688889-14.222222-11.377778-31.288889-14.222222-45.511111H273.066667c-2.844444 34.133333-19.911111 65.422222-45.511111 88.177778 0 88.177778 187.733333 88.177778 187.733333 0z" fill="#F4C534" p-id="19453"></path><path d="M497.777778 967.111111v-88.177778c0-31.288889-19.911111-56.888889-48.355556-68.266666-28.444444-11.377778-65.422222-22.755556-73.955555-25.6 0 34.133333-56.888889 62.577778-56.888889 62.577777s-54.044444-28.444444-56.888889-62.577777c-8.533333 0-45.511111 14.222222-73.955556 25.6s-48.355556 39.822222-48.355555 68.266666V967.111111h358.4z" fill="#E24B4B" p-id="19454"></path><path d="M230.4 688.355556a110.933333 91.022222 90 1 0 182.044444 0 110.933333 91.022222 90 1 0-182.044444 0Z" fill="#FFD93B" p-id="19455"></path><path d="M258.844444 622.933333s11.377778 14.222222 39.822223 17.066667c0 0-17.066667-11.377778-17.066667-25.6 0 0 31.288889 22.755556 59.733333 22.755556h28.444445s-11.377778-8.533333-19.911111-22.755556c0 0 19.911111 22.755556 36.977777 25.6 17.066667 2.844444 22.755556 8.533333 22.755556 19.911111v56.888889s56.888889-199.111111-68.266667-179.2c0 0-76.8-22.755556-108.088889 42.666667s2.844444 133.688889 2.844445 133.688889-14.222222-54.044444 22.755555-91.022223z" fill="#3E4347" p-id="19456"></path><path d="M420.977778 654.222222v5.688889c0-54.044444-45.511111-96.711111-99.555556-96.711111-56.888889 0-99.555556 45.511111-99.555555 96.711111V654.222222c-2.844444-56.888889 42.666667-105.244444 99.555555-105.244444 56.888889-2.844444 102.4 48.355556 99.555556 105.244444z" fill="#E84D88" p-id="19457"></path><path d="M395.377778 588.8c-8.533333 8.533333-31.288889 0-36.977778-8.533333-8.533333-8.533333 0-11.377778 8.533333-19.911111 8.533333-8.533333 11.377778-17.066667 19.911111-8.533334 8.533333 5.688889 17.066667 28.444444 8.533334 36.977778z" fill="#FC97B2" p-id="19458"></path><path d="M395.377778 585.955556c8.533333-8.533333 31.288889 0 36.977778 8.533333 8.533333 8.533333-19.911111 36.977778-28.444445 28.444444-8.533333-5.688889-17.066667-28.444444-8.533333-36.977777z" fill="#FC97B2" p-id="19459"></path><path d="M395.377778 585.955556m-11.377778 0a11.377778 11.377778 0 1 0 22.755556 0 11.377778 11.377778 0 1 0-22.755556 0Z" fill="#D23F77" p-id="19460"></path><path d="M583.111111 816.355556v-179.2c0-62.577778 51.2-113.777778 113.777778-113.777778s113.777778 51.2 113.777778 113.777778v179.2h-227.555556z" fill="#3E4347" p-id="19461"></path><path d="M603.022222 836.266667c14.222222-11.377778 22.755556-25.6 31.288889-42.666667 8.533333-14.222222 11.377778-31.288889 14.222222-48.355556h99.555556c5.688889 34.133333 19.911111 65.422222 45.511111 91.022223 0 91.022222-190.577778 91.022222-190.577778 0z" fill="#F4C534" p-id="19462"></path><path d="M514.844444 967.111111v-88.177778c0-31.288889 19.911111-59.733333 48.355556-71.111111 31.288889-11.377778 65.422222-25.6 76.8-25.6 0 36.977778 56.888889 62.577778 56.888889 62.577778s56.888889-28.444444 56.888889-62.577778c11.377778 0 45.511111 14.222222 76.8 25.6 28.444444 11.377778 48.355556 39.822222 48.355555 71.111111V967.111111H514.844444z" fill="#E24B4B" p-id="19463"></path><path d="M654.222222 634.311111c8.533333 0 17.066667 0 22.755556-2.844444 14.222222 22.755556 36.977778 39.822222 71.111111 39.822222 11.377778 0 22.755556-2.844444 31.288889-5.688889 2.844444 8.533333 2.844444 17.066667 2.844444 28.444444 0 56.888889-39.822222 102.4-85.333333 102.4-48.355556 0-85.333333-45.511111-85.333333-102.4 0-22.755556 5.688889-42.666667 17.066666-59.733333h25.6z" fill="#FFD93B" p-id="19464"></path><path d="M594.488889 648.533333v11.377778c5.688889-51.2 48.355556-91.022222 102.4-91.022222s96.711111 39.822222 102.4 91.022222v-11.377778c0-56.888889-45.511111-102.4-102.4-102.4s-102.4 45.511111-102.4 102.4z" fill="#45CBEA" p-id="19465"></path><path d="M773.688889 583.111111s5.688889-5.688889 0-14.222222c-2.844444-8.533333-34.133333-17.066667-34.133333-8.533333s19.911111 22.755556 19.911111 22.755555l2.844444 2.844445s-11.377778 14.222222 0 17.066666c8.533333 5.688889 17.066667 2.844444 17.066667 2.844445s17.066667 8.533333 14.222222-2.844445c-2.844444-5.688889-19.911111-19.911111-19.911111-19.911111z" fill="#1DA9BF" p-id="19466"></path><path d="M779.377778 585.955556c-8.533333-2.844444-14.222222-2.844444-19.911111 0-2.844444-2.844444-2.844444-5.688889-2.844445-8.533334 5.688889 0 11.377778 0 19.911111-2.844444 2.844444 5.688889 2.844444 8.533333 2.844445 11.377778z" fill="#2AB4CD" p-id="19467"></path><path d="M603.022222 611.555556s-5.688889 0-11.377778 8.533333c-2.844444 8.533333 11.377778 36.977778 17.066667 31.288889 5.688889-5.688889 2.844444-31.288889 2.844445-31.288889v-2.844445s17.066667-2.844444 14.222222-11.377777c-2.844444-8.533333-11.377778-14.222222-11.377778-14.222223s-5.688889-17.066667-11.377778-8.533333c-2.844444 5.688889 0 28.444444 0 28.444445z" fill="#1DA9BF" p-id="19468"></path><path d="M600.177778 603.022222c2.844444 5.688889 8.533333 11.377778 14.222222 14.222222 0 2.844444 0 5.688889-2.844444 8.533334-2.844444-5.688889-8.533333-8.533333-14.222223-11.377778 0-5.688889 2.844444-8.533333 2.844445-11.377778z" fill="#2AB4CD" p-id="19469"></path></svg>