<?xml version="1.0" standalone="no"?><!DOCTYPE svg PUBLIC "-//W3C//DTD SVG 1.1//EN" "http://www.w3.org/Graphics/SVG/1.1/DTD/svg11.dtd"><svg t="1721018121710" class="icon" viewBox="0 0 1024 1024" version="1.1" xmlns="http://www.w3.org/2000/svg" p-id="4444" xmlns:xlink="http://www.w3.org/1999/xlink" width="200" height="200"><path d="M479.767025 935.760398l-69.344586-274.90219s-16.861619 0 0 0H234.578672a36.830728 36.830728 0 0 1-29.053803-14.184586 36.847126 36.847126 0 0 1-6.657736-31.624247l84.537671-335.432655c4.968705-19.723133 24.995208-31.669342 44.697843-26.704737a36.814329 36.814329 0 0 1 26.708837 44.697843l-84.54177 335.428556a36.789732 36.789732 0 0 0-6.665936-31.620148 36.773333 36.773333 0 0 0-29.025106-14.192785h194.865871a36.822529 36.822529 0 0 1 35.695141 27.807528l90.699356 303.730516-4.681733-1.024898a36.814329 36.814329 0 0 1-26.692438 44.701943 36.797931 36.797931 0 0 1-44.697844-26.68014z" fill="#9191B3" p-id="4445"></path><path d="M515.42117 969.721412a42.898123 42.898123 0 0 1-41.61905-32.456464l-68.172103-270.257353H234.578672a42.734139 42.734139 0 0 1-33.903619-16.55005c-8.199182-10.535949-11.0279-23.990808-7.772825-36.90862l84.537671-335.436755a42.906322 42.906322 0 0 1 52.163199-31.165092c22.974109 5.788623 36.953715 29.18499 31.169192 52.163199L289.709975 581.076063h139.734568a42.92272 42.92272 0 0 1 41.660046 32.452364l90.629664 303.472242a6.161686 6.161686 0 0 1-3.357566 7.366965 42.676745 42.676745 0 0 1-6.022299 24.400767 42.697243 42.697243 0 0 1-26.38087 19.632943c-3.455955 0.881412-7.006201 1.320068-10.552348 1.320068z m-99.005128-310.240667l69.311789 274.771004a30.603449 30.603449 0 0 0 37.236587 22.227983c7.945008-2.0047 14.627342-6.981604 18.829423-14.016502s5.407361-15.283276 3.40676-23.220085a6.157586 6.157586 0 0 1 2.418759-6.530649l-88.370789-295.920794c-3.50925-13.897614-15.738331-23.420965-29.804028-23.420965H286.610684l-10.376065 41.163995a6.149387 6.149387 0 0 1-11.925711-3.0009l0.008199-0.036897a30.447664 30.447664 0 0 0-5.559045-26.298878 30.435365 30.435365 0 0 0-24.17529-11.82732 6.149387 6.149387 0 1 1 0-12.298774h42.447168l71.824838-284.970786c4.128288-16.398365-5.850117-33.1001-22.244382-37.232488a30.623947 30.623947 0 0 0-37.232488 22.240282l-84.537671 335.432655a30.496859 30.496859 0 0 0 5.550847 26.348073 30.500959 30.500959 0 0 0 24.199887 11.810923h175.909361c1.553745 0.016398 2.972204 0.610839 4.042197 1.578342v0.0041l0.008199 0.0041c0.340266 0.307469 0.647735 0.655935 0.910109 1.033097v0.004099l0.0041 0.0041c0.442756 0.643636 0.774823 1.369263 0.951105 2.152285zM264.669672 593.374836c1.344666 1.324168 2.61144 2.750826 3.788022 4.267675 1.180682 1.512749 2.250676 3.086992 3.205881 4.71043l2.262974-8.978105h-9.256877z" fill="#6E6E96" p-id="4446"></path><path d="M927.971236 987.562833c1.024898 6.292873-6.661836 7.797423-16.176987 9.441359-9.515151 1.631637-17.267478 2.775423-18.292376-3.51745-1.016699-6.280574 5.874714-12.712832 15.385766-14.34037 9.52335-1.648036 18.062799 2.135887 19.083597 8.416461z" fill="#EBCCA9" opacity=".25" p-id="4447"></path><path d="M901.118914 1000.337159c-5.694332 0-8.937109-2.197381-9.642239-6.526549-1.217579-7.510451 6.276474-14.84052 17.062499-16.689436a28.471661 28.471661 0 0 1 4.763725-0.414059c8.818221 0 15.680937 4.329168 16.685336 10.523651 1.381562 8.469756-8.395963 10.158787-17.84962 11.790425-4.185683 0.717428-7.899912 1.315969-11.019701 1.315968z m12.188084-19.530452c-1.336467 0-2.70573 0.118888-4.070894 0.356664-8.256577 1.414359-14.533051 6.907811-13.713132 11.991304 0.245975 1.488152 0.89781 3.082893 5.595942 3.082893 2.795921 0 6.329769-0.569843 10.32687-1.258574 10.740929-1.848916 15.127492-3.246876 14.504354-7.088194-0.668233-4.103691-5.985403-7.084094-12.64314-7.084093z" fill="#6E6E96" opacity=".25" p-id="4448"></path><path d="M1001.808974 626.905393H455.071088l52.073008-114.210512h453.550078z" fill="#F2D8BF" p-id="4449"></path><path d="M1001.886866 633.05478a0.274673 0.274673 0 0 1-0.081991 0H455.071088a6.149387 6.149387 0 0 1-5.595942-8.699333l52.073008-114.210512a6.149387 6.149387 0 0 1 5.595942-3.599441h453.550078a6.149387 6.149387 0 0 1 5.784523 4.066794l40.795032 113.316802a6.149387 6.149387 0 0 1-5.386863 9.12569z m-537.255532-12.298774h528.429112l-36.691341-101.911738H511.100201l-46.468867 101.911738z" fill="#6E6E96" p-id="4450"></path><path d="M455.071088 626.905393H1001.804875v86.431682H455.071088z" fill="#D1B59B" p-id="4451"></path><path d="M1001.804875 719.486462H455.071088a6.149387 6.149387 0 0 1-6.149387-6.149387v-86.431682a6.149387 6.149387 0 0 1 6.149387-6.149387H1001.804875a6.149387 6.149387 0 0 1 6.149386 6.149387v86.431682a6.149387 6.149387 0 0 1-6.149386 6.149387z m-540.5844-12.298774H995.655488v-74.132908H461.220475v74.132908z" fill="#6E6E96" p-id="4452"></path><path d="M898.84364 334.309367l44.591254-19.169689s8.961706-2.980403 7.358767 7.358767l-52.089407 237.214648-44.993014-33.132897 39.204392-184.43651c-0.0041 0.0041 1.10689-5.764025 5.928008-7.834319z" fill="#82D0E3" p-id="4453"></path><path d="M898.704254 565.86248c-1.291371 0-2.574543-0.409959-3.648636-1.197081l-44.993014-33.132897a6.149387 6.149387 0 0 1-2.365464-6.231378l39.204391-184.44061 0.069693 0.016398c0.676433-3.783923 3.550246-9.691434 9.445458-12.220881l44.587155-19.165589c0.159884-0.069693 0.323868-0.131187 0.487851-0.184482a15.254579 15.254579 0 0 1 4.579244-0.713329c3.41496 0 6.395362 1.283172 8.395962 3.61584 2.324468 2.718029 3.136187 6.493753 2.402361 11.22878l-52.163199 237.59181a6.149387 6.149387 0 0 1-6.001802 4.833419z m-38.154895-41.881425l34.178292 25.167391 50.039611-227.888078-43.492564 18.698236c-1.397961 0.59854-2.156385 2.672933-2.324468 3.390362l-0.016399 0.077892-38.384472 180.554197z" fill="#6E6E96" p-id="4454"></path><path d="M853.71534 526.584296s-0.430457 9.638139-9.642239 9.638139h-150.528791c-12.757928 0-21.604846 4.288172-21.604846 4.288172l-28.512657 20.256081s-14.082096 8.650138 8.646038 8.650137h225.694797c18.874518 0 20.924314-9.703732 20.924314-9.703732l-44.976616-33.128797z" fill="#FFFFFF" p-id="4455"></path><path d="M877.771741 575.566212h-225.694796c-8.236079 0-16.910814-0.90601-18.808925-7.612941-1.771023-6.264175 4.472654-10.868016 6.747927-12.306973l28.360973-20.149491c0.278772-0.19678 0.573943-0.373063 0.881412-0.520648 0.414059-0.20088 10.277675-4.903111 24.285978-4.903111h150.528791c0.791221 0 3.20998 0 3.501051-3.845417a6.231379 6.231379 0 0 1 3.570744-5.177783 6.128889 6.128889 0 0 1 6.214981 0.586241l44.980715 33.128797a6.149387 6.149387 0 0 1 2.369564 6.22318c-0.315669 1.488152-3.742927 14.578146-26.938415 14.578146z m-227.223944-12.311072c0.475553 0.012299 0.988001 0.016398 1.529148 0.016398h225.694796c5.964905 0 9.810322-1.110989 12.122492-2.398261l-33.370673-24.581149c-2.50485 3.427258-6.530649 6.079694-12.450459 6.079694h-150.528791c-9.650438 0-16.832922 2.779523-18.534252 3.501051l-24.462261 17.382267z" fill="#6E6E96" p-id="4456"></path><path d="M234.164614 905.759589v-166.664782a14.348569 14.348569 0 1 0-28.697139 0v166.664782a14.348569 14.348569 0 1 0 28.697139 0z" fill="#FFFFFF" p-id="4457"></path><path d="M219.816044 926.257546c-11.302573 0-20.497956-9.195383-20.497956-20.497957v-166.664782c0-11.302573 9.195383-20.497956 20.497956-20.497956s20.497956 9.195383 20.497957 20.497956v166.664782c0 11.302573-9.195383 20.497956-20.497957 20.497957z m0-195.361921c-4.521849 0-8.199182 3.677333-8.199182 8.199182v166.664782c0 4.521849 3.677333 8.199182 8.199182 8.199183s8.199182-3.677333 8.199183-8.199183v-166.664782c0-4.51775-3.677333-8.199182-8.199183-8.199182z" fill="#6E6E96" p-id="4458"></path><path d="M89.088279 410.856935c-10.388364 22.810126-100.013628 225.231543-48.453069 305.349854 9.884114 15.357069 29.549854 33.665843 67.110309 33.665843h243.638707c11.327171 0 20.497956-9.170786 20.497956-20.497956 0-11.323071-9.170786-20.497956-20.497956-20.497956h-243.638707c-20.678338 0-28.524956-8.469756-32.628647-14.848719-29.79173-46.280286 15.64814-187.830972 51.285886-266.190559v0.004099a20.497956 20.497956 0 1 0-37.314479-16.984606z" fill="#FF7878" p-id="4459"></path><path d="M351.384226 756.022019h-243.638707c-40.331779 0-61.567661-19.842022-72.279894-36.486362-53.335682-82.881436 37.494861-288.098775 48.026712-311.228668a26.729335 26.729335 0 0 1 24.26548-15.615343c3.820819 0 7.530949 0.807619 11.027901 2.398261a26.47926 26.47926 0 0 1 13.914012 14.914313 26.454662 26.454662 0 0 1-0.705129 20.383167C94.302959 513.268823 53.335744 648.830007 80.286456 690.699132c3.603541 5.600042 9.982505 12.028201 27.459063 12.028201h243.638707c14.692935 0 26.647343 11.954408 26.647343 26.647343s-11.954408 26.647343-26.647343 26.647343zM107.757817 404.994519a14.389565 14.389565 0 0 0-13.073596 8.412361c-4.849816 10.650738-29.910618 66.970923-47.120702 130.252213-21.506456 79.081115-22.113195 137.594581-1.762824 169.222928 9.055997 14.069797 27.155692 30.841225 61.940724 30.841225h243.638707c7.912211 0 14.348569-6.436358 14.34857-14.34857s-6.436358-14.348569-14.34857-14.348569h-243.638707c-17.784027 0-30.148394-5.780424-37.798231-17.673338-35.026908-54.413875 24.835324-214.843179 50.859529-272.065273a14.225582 14.225582 0 0 0 0.381262-10.970506 14.266578 14.266578 0 0 0-7.494053-8.0311 14.250179 14.250179 0 0 0-5.932109-1.291371z" fill="#6E6E96" p-id="4460"></path><path d="M199.318088 905.759589v88.403586c0 11.33127 9.178985 20.497956 20.497956 20.497956s20.497956-9.166686 20.497957-20.497956v-88.403586a20.497956 20.497956 0 1 0-40.995913 0z" fill="#FFFFFF" p-id="4461"></path><path d="M219.816044 1020.814618a26.68014 26.68014 0 0 1-26.647343-26.647343V905.763689c0-14.692935 11.954408-26.647343 26.647343-26.647343s26.647343 11.954408 26.647343 26.647343v88.403586c0 14.692935-11.954408 26.647343-26.647343 26.647343z m0-129.403598c-7.912211 0-14.348569 6.436358-14.348569 14.348569v88.403586c0 7.912211 6.436358 14.348569 14.348569 14.348569s14.348569-6.436358 14.34857-14.348569v-88.403586c0-7.908112-6.436358-14.348569-14.34857-14.348569z" fill="#6E6E96" p-id="4462"></path><path d="M143.826021 1017.850613h144.760666a20.497956 20.497956 0 1 0 0-40.995912H143.826021a20.497956 20.497956 0 1 0 0 40.995912z" fill="#FFFFFF" p-id="4463"></path><path d="M288.582588 1024h-144.756567c-14.692935 0-26.647343-11.954408-26.647343-26.647343s11.954408-26.647343 26.647343-26.647343h144.760666c14.692935 0 26.647343 11.954408 26.647343 26.647343s-11.958508 26.647343-26.651442 26.647343z m-144.756567-40.995912c-7.912211 0-14.348569 6.436358-14.348569 14.348569s6.436358 14.348569 14.348569 14.348569h144.760666c7.912211 0 14.348569-6.436358 14.34857-14.348569s-6.436358-14.348569-14.34857-14.348569H143.826021z" fill="#6E6E96" p-id="4464"></path><path d="M726.824792 527.559999s6.952907 4.821119 13.262178-0.471453c7.858916-6.583944 2.435157-14.688835 2.435157-14.688836s5.723029 3.80852 9.437259 0.295171c14.319872-13.54095-1.783322-28.48396-1.783322-28.48396l-27.118796-14.668338s-14.697035-6.82172-26.516157 6.616741c0 0-20.493857 15.713733-33.255884 14.582246l-0.278772-0.057395-1.623438-0.229577h-0.069693l-108.536678-80.679955-124.279109-95.147414c-10.285874-8.662436-34.760434-4.460355-45.279985 5.698432-10.507252 10.162887-10.695834 25.413366-0.414059 34.079902l89.514575 66.815138c4.083193 3.435457 0 0 5.784523 0.286972l183.854369 106.987032a29.849124 29.849124 0 0 0 12.142989-1.963704l0.049195-0.016398c1.176583-0.455055 2.320369-0.955205 3.439557-1.545546 7.170185-3.0091 26.282479-10.392464 29.98851-0.959304 0 0 8.400062 14.774927 16.55005 11.569046 8.158187-3.201781 3.296071-7.543248 3.296071-7.543248" fill="#F7C8B6" p-id="4465"></path><path d="M721.696203 542.216037c-10.503153 0-18.480957-13.426161-19.464859-15.164388a6.961106 6.961106 0 0 1-0.381262-0.787121c-0.061494-0.151685-0.081992-0.213179-0.405859-0.348466-0.840416-0.348465-5.841918-1.799721-21.248182 4.632539a40.528559 40.528559 0 0 1-3.833118 1.70543l-0.213178 0.081991a35.338477 35.338477 0 0 1-14.516653 2.303971 6.21908 6.21908 0 0 1-2.779523-0.824018l-181.579095-105.666964a5.891113 5.891113 0 0 1-1.750526 0.651835c-3.074693 0.590341-4.878514-0.938806-7.174284-2.869714L379.12206 359.333272c-6.313371-5.308971-9.781625-12.397164-10.048098-20.186387-0.286971-8.432859 3.30837-16.902615 9.863617-23.244683 12.327471-11.909313 40.491663-16.94771 53.516064-5.977204l124.05773 94.971131 107.351897 79.700153 0.241876 0.040996c7.399762 0.475553 21.006306-7.576045 28.250283-13.020302 11.696134-12.819422 26.844123-10.646638 33.29278-7.649837l27.454963 14.836421c0.450955 0.245975 0.877313 0.549345 1.258574 0.90191 0.983902 0.914209 9.62994 9.256877 9.679135 20.465159 0.028697 6.231379-2.685232 12.106093-7.858916 16.996906a11.302573 11.302573 0 0 1-5.784523 2.980403c-0.356664 3.956106-2.148186 8.12539-6.358466 11.655137a16.058099 16.058099 0 0 1-10.306373 3.894612c-1.377463 2.349066-3.841317 4.226679-7.362866 5.612341a12.790725 12.790725 0 0 1-4.673534 0.906009z m-8.605042-20.953011c2.459755 4.161085 6.157586 7.82612 7.998303 8.518951a6.149387 6.149387 0 0 1 9.166686-7.32597c0.787122 0.508349 3.484653 1.935007 5.878814-0.086091 3.365764-2.820519 1.828418-5.727129 1.279072-6.555246a6.149387 6.149387 0 0 1 8.518951-8.543548c0.557544 0.352565 1.50045 0.70103 2.008799 0.750225 2.574543-2.500751 3.816719-5.054796 3.804421-7.801522-0.024598-4.940007-3.952006-9.593044-5.300771-11.044299l-26.073401-14.102594c-1.656235-0.688731-11.13039-4.038097-19.210684 5.140887-0.262374 0.29927-0.557544 0.573943-0.873213 0.819919-2.295771 1.758725-22.781429 17.119893-37.544057 15.828521a6.957006 6.957006 0 0 1-0.705129-0.102489l-1.438957-0.20908a6.272375 6.272375 0 0 1-2.955805-1.168383l-108.536678-80.679956-124.348802-95.192508c-7.604742-6.391263-28.373271-3.353466-37.269384 5.239277-4.058595 3.923309-6.288773 9.019101-6.12069 13.979606a14.893815 14.893815 0 0 0 5.399162 10.978706l88.243702 65.851734c1.024898-0.188581 2.160485-0.258274 3.394461-0.192681 0.983902 0.049195 1.939107 0.332067 2.787722 0.828117l182.481005 106.187613a23.908816 23.908816 0 0 0 8.240179-1.598841l0.114788-0.045095c0.918308-0.356664 1.812019-0.750225 2.685233-1.20938 0.159884-0.086091 0.319768-0.159884 0.483751-0.229577 14.24198-5.977204 24.388468-7.52685 31.025707-4.718629a12.708733 12.708733 0 0 1 6.866815 6.682333z" fill="#6E6E96" p-id="4466"></path><path d="M217.639161 631.8536h140.755366c15.967908 0 29.881921 11.454258 33.784731 27.811627l86.919534 302.701518c4.702231 19.727233-16.418863 39.733238-35.080202 44.697844-18.665439 4.976904-37.60965-6.969305-42.307782-26.688339L337.630097 705.486358H169.628848c-10.740929 0-34.084002 2.176883-34.084001-34.776832 0-11.122191 13.274476-61.653753 15.898215-72.669355L215.855839 343.545746l9.650438-14.479756c4.706331-19.719034 13.996004-17.185486 32.653244-12.212683 18.665439 4.968705 29.976211 5.665635 25.282179 25.38057l-65.802539 289.619723" fill="#9191B3" p-id="4467"></path><path d="M435.462743 1014.345463c-18.829423 0-35.170393-13.381066-39.733239-32.542556L332.751584 711.635745l-166.898459 0.024597c-7.342368 0-15.840821-0.742026-23.191388-6.227279-8.801822-6.567545-13.266277-18.247281-13.266277-34.727637 0-9.101093 7.096392-38.191792 13.750029-64.744845 1.024898-4.095492 1.844816-7.366965 2.316269-9.347068l64.437375-254.580516c0.172183-0.676433 0.455055-1.320068 0.844516-1.898111l9.051897-13.586045c2.20558-8.62964 6.834019-19.374668 20.428263-19.374668 5.497552 0 11.618242 1.627538 19.36647 3.693731 1.889912 0.50425 3.566644 0.930607 5.165484 1.336467 14.910213 3.788022 30.328776 7.703132 24.671341 31.452064L225.342293 625.704213h133.052234c18.841721 0 35.194991 13.381066 39.766035 32.534356l86.849841 302.430945c5.846017 24.486858-19.030303 46.915722-39.409371 52.339482a39.368375 39.368375 0 0 1-10.138289 1.336467zM336.072253 699.336971h1.557844a6.149387 6.149387 0 0 1 5.989503 4.751426L407.700311 978.982389c3.234577 13.569647 14.651939 23.0643 27.762432 23.0643 2.332667 0 4.681733-0.311569 6.973405-0.922408 16.861619-4.489052 34.30538-22.137793 30.68134-37.330878l-86.84984-302.430945c-3.316569-13.864818-14.74623-23.359471-27.873121-23.359471H217.639161a6.149387 6.149387 0 0 1-5.997702-7.510452l65.802539-289.619722c2.759025-11.581345 0.758424-12.557048-15.721932-16.742731-1.643936-0.418158-3.361665-0.852715-5.144987-1.328268-7.034899-1.877613-12.470957-3.324768-16.357369-3.324768-2.861515 0-6.100192 0-8.732129 11.019701a6.11659 6.11659 0 0 1-0.865014 1.984202l-9.060097 13.598344-64.158603 253.473627c-0.459154 1.926808-1.287272 5.247477-2.328568 9.400363-4.005301 15.984306-13.381066 53.409475-13.381065 61.756243 0 12.384865 2.800021 20.752131 8.32217 24.86812 4.456256 3.328868 10.248978 3.783923 15.84082 3.783923l3.775724-0.024598H336.072253z" fill="#6E6E96" p-id="4468"></path><path d="M442.333658 399.558461c-30.336975-27.18029-42.381574-61.010117-26.917916-75.551367 15.492355-14.553549 52.634652-4.296372 82.967527 22.888018l37.585053 33.678142-47.870927 61.395479L442.333658 399.558461z" fill="#FFFFFF" p-id="4469"></path><path d="M488.097395 448.118119c-1.541446 0-3.037797-0.582142-4.181583-1.639836L438.152075 404.068012c-21.715535-19.45256-35.395871-43.344978-35.625448-62.280991-0.110689-9.121591 2.890212-16.816523 8.670635-22.25668 5.772224-5.423759 14.032901-8.285274 23.892418-8.285274 20.182288 0 46.005613 11.909313 67.39318 31.074901l37.585053 33.678142a6.149387 6.149387 0 0 1 0.746126 8.363166l-47.866828 61.395479a6.157586 6.157586 0 0 1-4.849816 2.361364zM435.09378 323.539741c-4.653036 0-11.109892 0.856815-15.467758 4.952306-3.250976 3.058295-4.866215 7.481754-4.796522 13.147389 0.184482 15.365268 12.593944 36.30188 31.611948 53.339782l40.92622 37.929418 40.225189-51.585157-33.309179-29.845024c-19.231183-17.234682-41.910121-27.938714-59.189898-27.938714z" fill="#6E6E96" p-id="4470"></path><path d="M190.126805 381.938418L145.13789 597.023473l233.402028 37.90482 70.467874-336.904408-137.574083-22.350972c0.0041-0.0041-95.450783-17.378167-121.306904 106.265505z" fill="#FFFFFF" p-id="4471"></path><path d="M378.544018 641.07768a5.82142 5.82142 0 0 1-0.992101-0.081992l-233.402028-37.90482a6.149387 6.149387 0 0 1-5.034298-7.32597l44.988914-215.085054c21.141592-101.079522 87.66156-111.992634 115.280506-111.992634 6.858616 0 10.884415 0.348465 13.34007 0.967504l137.266613 22.297676a6.137088 6.137088 0 0 1 5.034298 7.32597l-70.467874 336.904408a6.149387 6.149387 0 0 1-6.0141 4.894912zM152.476159 591.980975l221.24674 35.937017 67.950725-324.855709-131.227916-21.317875a1.283172 1.283172 0 0 1-0.122988-0.020498c-0.20088-0.032797-4.357865-0.737926-10.93361-0.737926-73.886933 0-96.815947 71.480473-103.244106 102.215108L152.476159 591.980975z" fill="#6E6E96" p-id="4472"></path><path d="M290.132233 332.665431c13.499954-5.61234 37.81463-0.582142 44.222291 11.245179l59.005417 123.893747 118.510983 66.528166 0.057395 0.032797 1.434857 0.80352 0.245975 0.159884c11.470656 5.723029 36.293681-1.430757 36.293681-1.430757 15.922812-8.182784 27.094199 3.529748 27.094199 3.529748s35.924718 38.240987 11.13449 50.724242c-3.168984 1.611139-6.305171 1.233977-6.862716-1.110989-1.561944-6.743828-5.456556-19.268079-14.389565-30.082801 0 0 11.072996 15.213583 12.540649 31.976812-0.549345 2.939407-2.328568 6.52245-7.592443 8.285274-5.280274 1.762824-9.293773 1.10689-10.335069-1.410259-1.119188-7.444858-3.792122-21.941012-8.248378-28.615147 0 0 5.296672 8.982204 5.768125 28.344574 0 2.664734-1.40206 5.854216-8.108991 5.620539-9.617641-0.327967-8.236079-18.694136-8.236079-18.694136-3.193582-13.344169-14.315773-8.605042-22.092697-8.436959-1.246276 0.151685 0 0-9.941509-1.459454h-0.061494a30.009008 30.009008 0 0 1-12.015902-2.615539l-138.812159-64.99082c-5.284373-2.381863-9.511052-6.21498-12.052799-10.904913l-70.39818-129.834055c-6.407661-11.810922-0.655935-25.938114 12.839919-31.558653z" fill="#F7C8B6" p-id="4473"></path><path d="M551.579565 607.321646l-0.889611-0.016399a12.458658 12.458658 0 0 1-9.035499-4.243077c-5.255676-5.862415-5.349967-16.152389-5.181884-19.977308-1.065894-3.669134-2.61144-3.853616-5.132688-3.853615-1.557845 0-3.296071 0.221378-5.140887 0.450955-1.697231 0.213179-3.451856 0.430457-5.194182 0.491951-1.045396 0.106589-1.168384 0.168083-3.263275-0.221378a184.809573 184.809573 0 0 0-7.62524-1.242177 35.912419 35.912419 0 0 1-14.094394-3.156685l-138.881853-65.019517c-6.383064-2.877913-11.683835-7.699032-14.852819-13.54095L271.889052 367.159392c-3.755226-6.92421-4.394762-14.779026-1.79972-22.125494 2.81232-7.957307 9.256877-14.533051 17.681537-18.042301 4.357865-1.812019 9.716031-2.767224 15.492355-2.767224 13.204783 0 30.259083 5.243377 36.50276 16.759129l58.308487 122.417894 118.297805 66.409278 0.254174 0.147585c1.50865 0.688731 4.288172 1.443056 9.191284 1.443057 9.146188 0 19.46076-2.619639 21.86312-3.267375 4.439857-2.176883 8.982204-3.283773 13.516352-3.283772 12.155288 0 19.919914 7.998303 20.243782 8.338568 2.549946 2.70983 24.515556 26.733434 21.211285 45.411173-1.156085 6.555246-5.222879 11.757628-11.757628 15.049599-2.390062 1.209379-4.960505 1.762824-7.284973 1.60704-2.021098 3.615839-5.382763 6.309271-9.826721 7.797422-4.476754 1.492251-8.596843 1.70133-11.856018 0.60674-2.152285 2.168684-5.493452 3.660935-10.347368 3.660935z m-20.239682-40.393273c11.515752 0 15.767028 7.670335 17.308474 14.102594 0.147585 0.619038 0.20088 1.262674 0.151685 1.894011-0.393561 5.51805 0.885512 11.355868 2.168684 12.073296l0.60674 0.020498c0.553445 0 0.959304-0.036896 1.258574-0.081991-0.516548-16.64844-4.878514-24.601647-4.923609-24.683639a6.173984 6.173984 0 0 1 2.131787-8.281175 6.124789 6.124789 0 0 1 8.313971 1.795621c4.390662 6.583944 7.141488 18.476858 8.760827 28.246184a13.24168 13.24168 0 0 0 2.763124-0.635437c2.172783-0.729727 2.968104-1.775123 3.31657-2.865614-1.623438-14.520752-11.187784-27.803428-11.290275-27.938714a6.149387 6.149387 0 0 1 9.711932-7.535049c8.338569 10.093194 12.630841 21.522854 14.738031 29.074301 3.173084-1.914509 3.91511-4.11599 4.185682-5.657436 1.693131-9.539749-10.162887-26.421866-18.030002-34.821928-0.0041 0-4.566945-4.493152-11.314872-4.493152-2.763124 0-5.61644 0.750225-8.486154 2.221979-0.352565 0.184482-0.725628 0.327967-1.110989 0.438656-0.549345 0.159884-13.63524 3.886412-25.782329 3.886413-6.198582 0-11.089394-0.938806-14.955309-2.861515a5.952606 5.952606 0 0 1-0.627238-0.364864l-1.315968-0.746125-118.568378-66.548665a6.149387 6.149387 0 0 1-2.541747-2.718029L328.803677 346.554846c-2.988602-5.501651-14.274777-10.035799-25.540453-10.035799-4.173384 0-7.895813 0.631337-10.765527 1.824318-5.21468 2.172783-9.154387 6.104291-10.810622 10.786024a14.852819 14.852819 0 0 0 1.016699 12.167587l70.398181 129.834055c1.889912 3.492852 5.149087 6.411761 9.174885 8.227879l138.894151 65.027717a23.662841 23.662841 0 0 0 9.486454 2.033397c0.270573 0.0041 0.60264 0.024598 0.873213 0.065593 5.108091 0.754325 7.342368 1.168384 8.457457 1.373363l0.315669 0.061494c1.60704-0.086091 2.968104-0.262374 4.357865-0.438656 2.041596-0.262374 4.353766-0.553445 6.678234-0.553445z" fill="#6E6E96" p-id="4474"></path><path d="M324.048152 298.606027l49.559958 104.092721-75.149607 41.602652-45.591554-91.46598" fill="#FFFFFF" p-id="4475"></path><path d="M298.458503 450.450787a6.137088 6.137088 0 0 1-5.501651-3.40676l-45.587455-91.465981a6.149387 6.149387 0 1 1 11.003303-5.485253l42.72594 85.718354L365.568812 400.120105 318.493205 301.250263a6.157586 6.157586 0 0 1 2.906611-8.199182 6.161686 6.161686 0 0 1 8.199182 2.90661L379.158957 400.054512a6.157586 6.157586 0 0 1-2.574544 8.026999L301.434806 449.684163a6.210881 6.210881 0 0 1-2.976303 0.766624z" fill="#6E6E96" p-id="4476"></path><path d="M255.630073 147.4295c-10.859817 82.049219 2.20558 168.550594 119.777758 196.604097 92.187508 21.994307 126.517485-24.630344 140.902951-76.863236 5.764025-20.924314 28.024806-8.12129 26.024205-26.77853-18.25548-170.010049-23.904717-214.793984-167.410908-224.813384-67.364483-4.702231-107.171514 40.307181-119.294006 131.851053z" fill="#F7C8B6" p-id="4477"></path><path d="M418.519132 355.762528s0.0041 0 0 0c-13.565547 0-28.549553-1.935007-44.537959-5.747627-98.738655-23.560351-139.443497-90.088518-124.443092-203.39302 12.680036-95.754153 55.147701-142.091832 125.816455-137.180522 149.487495 10.437559 154.960449 61.407777 173.097041 230.294538 1.553745 14.455159-8.494353 17.361769-14.496155 19.099995-5.657436 1.635737-9.740629 2.820519-11.708432 9.966107-15.898215 57.701747-50.798035 86.960529-103.727858 86.960529zM365.536015 21.391667c-57.738643 0-92.66716 42.676745-103.809849 126.841353C247.512883 255.609514 284.089436 315.9227 376.834488 338.052294c15.053699 3.591242 29.078401 5.41146 41.684644 5.41146 47.374876 0 77.420781-25.491258 91.863641-77.92913 3.800321-13.782826 13.63524-16.632042 20.149491-18.513754 5.907511-1.70953 6.137088-1.779223 5.690232-5.973104-18.189886-169.370513-22.510856-209.6162-161.724775-219.336331a130.965542 130.965542 0 0 0-8.961706-0.319768z" fill="#6E6E96" p-id="4478"></path><path d="M445.650227 126.636373s88.612665-5.727129 94.548873-37.445666c16.381967-87.563169-244.270045-129.588079-291.706415-5.153186-40.397372 105.966234-2.467954 209.148846 25.388769 194.197637 0 0-6.71513-22.121394-5.079394-50.363478-9.605342-9.396263-16.226182-27.565652-16.226182-41.934719 0-20.297076 15.184886-32.39497 29.361272-25.253482 2.841017 1.438957 5.460656 2.795921 7.871216 4.124189 0 0 42.041308-11.823221 56.86133-51.634352 0.0041 0.0041 37.084902 13.463058 98.980531 13.463057z" fill="#9191B3" p-id="4479"></path><path d="M268.314209 285.8358c-5.386863 0-13.573747-2.558145-21.973809-14.750329-20.247881-29.38587-34.748135-107.528179-3.595342-189.237132C262.28371 30.595249 319.468908 0 395.717206 0c58.980819 0 114.599974 19.25988 138.4022 47.928321 10.708132 12.897314 14.902014 27.557452 12.126591 42.393873-6.624939 35.395871-90.641962 41.836329-100.19811 42.451268h-0.090191c-46.911623 0-81.024321-7.555547-95.717256-12.126591-17.218283 37.999111-57.004816 49.584556-58.763541 50.080606a6.124789 6.124789 0 0 1-4.636637-0.532947 241.90868 241.90868 0 0 0-7.678535-4.021699 12.33157 12.33157 0 0 0-5.579544-1.40206c-7.301372 0-14.852819 7.916311-14.852819 21.170289 0 13.163787 6.31747 29.652343 14.377267 37.539957a6.149387 6.149387 0 0 1 1.840716 4.751427c-1.545546 26.712937 4.763725 48.018512 4.825219 48.231691a6.161686 6.161686 0 0 1-2.976303 7.198882 17.894716 17.894716 0 0 1-8.482054 2.172783zM395.717206 12.298774C324.773779 12.298774 271.884953 39.938218 254.236212 86.226703c-29.238285 76.695153-15.955609 151.483996 2.230178 177.877164 3.341167 4.849816 6.805321 8.0229 9.806222 9.060097a171.90816 171.90816 0 0 1-3.742927-42.971916c-9.441359-10.650738-16.103194-28.717637-16.103194-44.255087 0-18.767929 11.925711-33.469063 27.151593-33.469063 3.796221 0 7.539148 0.914209 11.12629 2.722128 2.0088 1.020798 3.902811 1.992401 5.694333 2.947607 8.531249-3.062395 38.892822-15.910514 50.506964-47.108403a6.141188 6.141188 0 0 1 7.883514-3.624039c0.840416 0.29927 37.240687 13.085895 96.856942 13.085895 32.021907-2.094891 84.824642-12.766127 88.506076-32.427767 2.111289-11.282075-1.086392-22.141892-9.498753-32.276081C503.397069 30.181191 450.377056 12.298774 395.717206 12.298774z" fill="#6E6E96" p-id="4480"></path><path d="M396.295248 992.584832c3.984803 20.924314 18.583447 25.88072 62.354783 17.591346 43.767236-8.289373 89.899936-19.85432 85.919233-40.762235-3.968404-20.940712-52.523963-34.247985-96.287099-25.954513-43.779535 8.297573-55.951221 28.192889-51.986917 49.125402z" fill="#9191B3" p-id="4481"></path><path d="M426.345252 1020.138185c-0.0041 0-0.0041 0 0 0-21.485958 0-32.616348-8.141788-36.092801-26.401368-3.10749-16.418863 0.147585-45.562857 56.881828-56.316084a152.459699 152.459699 0 0 1 28.328176-2.60734c34.194691 0 70.988522 11.495254 75.149607 33.456764 3.640437 19.108195-20.801326 28.791429-28.828326 31.976811-18.140691 7.186583-42.656247 12.311072-61.98582 15.972008-13.926311 2.636037-24.86812 3.919209-33.452664 3.919209z m49.117203-73.030118c-8.904312 0-17.669238 0.80352-26.036504 2.390061-24.232684 4.595642-52.077108 15.603044-47.087905 41.938819 2.025198 10.63434 6.448657 16.398365 24.003106 16.398365h0.0041c7.805622 0 18.001305-1.209379 31.160993-3.701931 18.796626-3.562545 42.574255-8.518951 59.743343-15.324272 10.503153-4.161085 22.715835-10.704033 21.276879-18.247281-2.144086-11.33127-27.996109-23.453761-63.064012-23.453761z" fill="#6E6E96" p-id="4482"></path><path d="M346.673796 113.177415s-21.510555-7.252177-31.59965-17.337171" fill="#8C8C8C" p-id="4483"></path><path d="M346.673796 119.326802c-0.651835 0-1.311869-0.10249-1.963705-0.323867-0.934707-0.315669-23.002806-7.838418-33.985611-18.813025a6.149387 6.149387 0 1 1 8.699333-8.699332c8.937109 8.933009 29.016907 15.791625 29.217786 15.861318a6.153486 6.153486 0 0 1-1.967803 11.974906z" fill="#6E6E96" p-id="4484"></path><path d="M154.259481 749.872632h128.243413v25.856122H154.259481z" fill="#FFFFFF" p-id="4485"></path><path d="M282.502894 781.878141H154.259481a6.149387 6.149387 0 0 1-6.149387-6.149387v-25.856122a6.149387 6.149387 0 0 1 6.149387-6.149386h128.243413a6.149387 6.149387 0 0 1 6.149387 6.149386v25.856122a6.149387 6.149387 0 0 1-6.149387 6.149387z m-122.094026-12.298773h115.944639v-13.557349H160.408868v13.557349z" fill="#6E6E96" p-id="4486"></path><path d="M742.522127 512.39971s-2.570444-18.706435-18.702335-18.706435" fill="#F7C8B6" p-id="4487"></path><path d="M742.513928 518.549097a6.149387 6.149387 0 0 1-6.079694-5.288473c-0.20498-1.389761-2.295771-13.422062-12.614442-13.422061a6.149387 6.149387 0 1 1 0-12.298774c17.001005 0 23.658741 15.713733 24.798427 24.019505a6.149387 6.149387 0 0 1-6.104291 6.989803z" fill="#6E6E96" p-id="4488"></path><path d="M619.399103 926.302641h223.427723v32.132596h-223.427723z" fill="#D1B59B" p-id="4489"></path><path d="M842.826826 964.584624h-223.427723a6.149387 6.149387 0 0 1-6.149387-6.149387v-32.132596a6.149387 6.149387 0 0 1 6.149387-6.149387h223.427723a6.149387 6.149387 0 0 1 6.149387 6.149387v32.132596a6.149387 6.149387 0 0 1-6.149387 6.149387z m-217.278336-12.298774h211.128949v-19.833822h-211.128949v19.833822z" fill="#6E6E96" p-id="4490"></path><path d="M528.552161 713.337075v300.159772h90.846942v-212.596602h223.427723v212.596602h89.834343v-300.159772z" fill="#D1B59B" p-id="4491"></path><path d="M932.661169 1019.646234h-89.834343a6.149387 6.149387 0 0 1-6.149387-6.149387v-206.443116h-211.128949v206.443116a6.149387 6.149387 0 0 1-6.149387 6.149387h-90.846942a6.149387 6.149387 0 0 1-6.149387-6.149387v-300.159772a6.149387 6.149387 0 0 1 6.149387-6.149387h404.109008a6.149387 6.149387 0 0 1 6.149386 6.149387v300.159772a6.149387 6.149387 0 0 1-6.149386 6.149387z m-83.684956-12.298774h77.535569v-287.860998h-391.810234v287.860998h78.548168v-206.443116a6.149387 6.149387 0 0 1 6.149387-6.149387h223.427723a6.149387 6.149387 0 0 1 6.149387 6.149387v206.443116z" fill="#6E6E96" p-id="4492"></path><path d="M479.172585 184.030651h-26.647343a6.149387 6.149387 0 1 1 0-12.298774h26.647343a6.149387 6.149387 0 1 1 0 12.298774z" fill="#6E6E96" p-id="4493"></path><path d="M528.552161 713.337075h404.109008v28.242084h-404.109008z" fill="#6E6E96" opacity=".15" p-id="4494"></path><path d="M455.071088 682.135086H1001.804875v31.19789H455.071088z" fill="#6E6E96" opacity=".15" p-id="4495"></path><path d="M591.911344 800.900245h27.487759v212.588403h-27.487759z" fill="#6E6E96" opacity=".15" p-id="4496"></path><path d="M151.86122 564.890876l204.323627 31.152794 18.448161-59.444073-28.697139-8.199182-36.896321-65.59756h-20.497956l-59.444073-122.987737 30.746934-14.348569 49.195095 92.240803 56.377579-32.214588 8.190983 17.205984v23.630044l-46.120401 26.225085-10.248978-16.398365 30.451763 57.914926 53.930123 30.509158-23.080699 110.348697-233.402028-37.90482z" fill="#6E6E96" opacity=".1" p-id="4497"></path><path d="M352.257439 357.857419s29.123496 11.761727 81.774546 11.761727l4.525949-21.633543s-67.835936-1.094591-93.114016-13.171986l6.813521 23.043802z" fill="#6E6E96" opacity=".1" p-id="4498"></path><path d="M434.031985 369.615047s42.402072-0.774823 64.351284-22.719935l-17.788126-17.788126-42.033109 18.874518-4.530049 21.633543z" fill="#6E6E96" opacity=".1" p-id="4499"></path><path d="M448.696223 368.200688l57.160601 50.986616-17.759429 22.777329-56.603057-53.249591 2.537647-19.099995z" fill="#6E6E96" opacity=".1" p-id="4500"></path><path d="M510.948516 412.660755l143.82596 95.918136s47.198594-17.128092 71.058215 12.298774c0 0-4.849816 24.966511-11.548549 11.548548s-45.017611-11.253378-52.323083-3.947906l-164.340314-97.799849 13.327771-18.017703z" fill="#6E6E96" opacity=".1" p-id="4501"></path><path d="M342.885773 443.80125l26.27838 45.653048 133.921347 64.228296s48.063608-1.816119 58.398678 42.131499c0 0-17.398665 9.970206-17.398666-9.334769s-33.444465-13.905813-33.444465-13.905814L352.704294 499.084238l-25.216585-46.530361 15.398064-8.752627z" fill="#6E6E96" opacity=".1" p-id="4502"></path><path d="M175.491264 601.951181s-37.892522 71.984723 0 71.984723h181.374116l70.033317 275.336747-27.553353 20.973509-61.715247-264.759802H154.620245s-19.079498 0.254175-19.079498-34.776832 19.550951-72.062615 19.550951-72.062615l20.399566 3.30427z" fill="#6E6E96" opacity=".25" p-id="4503"></path><path d="M378.539918 634.928293h43.923021l86.35379 309.900401-35.859125-3.853616z" fill="#6E6E96" opacity=".25" p-id="4504"></path><path d="M422.643321 952.515428s-24.290078 32.989411 13.483556 32.98941c37.777733 0 107.995532-18.776128 77.232199-39.450366 0 0 30.39027 4.251276 15.193085 44.398573 0 0-77.412581 23.519355-100.632666 23.519355s-48.686746-27.532855-5.276174-61.456972z" fill="#6E6E96" opacity=".25" p-id="4505"></path><path d="M247.545679 749.872632h34.957215v25.856122h-34.957215z" fill="#6E6E96" opacity=".1" p-id="4506"></path><path d="M221.582968 775.728754h18.731033v196.108047h-18.731033z" fill="#6E6E96" opacity=".1" p-id="4507"></path><path d="M257.110026 976.854701h46.198294v34.739936H257.110026z" fill="#6E6E96" opacity=".1" p-id="4508"></path><path d="M268.556085 238.014068s10.417061 73.788543 126.574879 73.788543 99.328996-105.650566 114.788555-90.191007c31.251184 31.251184 16.533651-89.108715 8.272975-110.832449 0 0 22.978209 87.075318 22.978209 137.217418l-19.489457 9.92511s-26.548953 95.68036-95.68036 95.68036-178.701182-42.385674-157.444801-115.587975z" fill="#6E6E96" opacity=".1" p-id="4509"></path><path d="M446.830909 11.146789s67.983522 16.627942 54.889427 62.87543c-13.089995 46.247489-162.618486 15.033201-184.481605 6.834019 0 0-37.031608 3.956106-10.93361 30.062303 0 0 27.721436 34.071703-12.372567 49.764938 0 0 44.73474-7.793323 57.935424-45.862127 0 0 174.884463 34.629247 188.331122-25.634745 13.446659-60.263991-93.368191-78.039819-93.368191-78.039818z" fill="#6E6E96" opacity=".25" p-id="4510"></path><path d="M879.714948 316.541739l44.591254-19.169689s8.961706-2.980403 7.358766 7.358766l-52.089406 237.214648-44.993014-33.136996 39.204391-184.43651c-0.0041 0.008199 1.10689-5.755826 5.928009-7.830219z" fill="#82B4E3" p-id="4511"></path><path d="M879.575562 548.094851c-1.291371 0-2.574543-0.409959-3.648637-1.197081l-44.993013-33.136996a6.149387 6.149387 0 0 1-2.365465-6.231378l39.204391-184.436511 0.073793 0.016399c0.672333-3.783923 3.546146-9.687334 9.437259-12.220882l44.591254-19.169688c0.159884-0.069693 0.323868-0.131187 0.487851-0.184482a15.254579 15.254579 0 0 1 4.579244-0.713329c3.41496 0 6.395362 1.283172 8.395963 3.61584 2.324468 2.718029 3.136187 6.493753 2.40236 11.22878l-52.163199 237.59181a6.149387 6.149387 0 0 1-6.001801 4.837518z m-38.154896-41.881424l34.178292 25.17149 50.039611-227.888078-43.492564 18.698236c-1.397961 0.59854-2.156385 2.672933-2.324468 3.390362l-0.016398 0.073792-38.384473 180.554198z" fill="#6E6E96" p-id="4512"></path><path d="M834.586647 508.816667s-0.430457 9.638139-9.642238 9.638139h-150.528791c-12.757928 0-21.604846 4.288172-21.604846 4.288173l-28.512657 20.25608s-14.082096 8.650138 8.646038 8.650138h225.694796c18.874518 0 20.924314-9.703732 20.924314-9.703733l-44.976616-33.128797z" fill="#FFFFFF" p-id="4513"></path><path d="M858.643049 557.798584h-225.694797c-8.236079 0-16.910814-0.90601-18.808925-7.612941-1.771023-6.264175 4.472654-10.868016 6.747928-12.306973l28.360972-20.149491c0.278772-0.19678 0.573943-0.373063 0.881412-0.520648 0.414059-0.20088 10.277675-4.903111 24.285979-4.903111h150.528791c0.791221 0 3.20998 0 3.501051-3.849517a6.231379 6.231379 0 0 1 3.570744-5.177783 6.149387 6.149387 0 0 1 6.21498 0.590341l44.980715 33.128797a6.149387 6.149387 0 0 1 2.369564 6.223179c-0.315669 1.488152-3.742927 14.578146-26.938414 14.578147z m-227.223944-12.311073c0.475553 0.012299 0.988001 0.016398 1.529147 0.016398h225.694797c5.964905 0 9.810322-1.110989 12.122491-2.39826l-33.370673-24.58115c-2.50485 3.427258-6.530649 6.079694-12.450458 6.079694h-150.528791c-9.650438 0-16.832922 2.779523-18.534252 3.501051l-24.462261 17.382267z" fill="#6E6E96" p-id="4514"></path><path d="M931.664968 296.576729l19.128693 17.767629-52.093506 245.368735-19.128693-17.767629z" fill="#A7A7C2" p-id="4515"></path><path d="M898.700155 565.86248c-1.529148 0-3.029598-0.573943-4.185683-1.643937l-19.128693-17.767628a6.137088 6.137088 0 0 1-1.832517-5.780424l52.093506-245.372834a6.153486 6.153486 0 0 1 10.203883-3.230478l19.128692 17.767628c1.586542 1.471753 2.283472 3.669134 1.832518 5.784524l-52.093506 245.372834a6.149387 6.149387 0 0 1-6.0182 4.870315z m-12.393065-26.048803l8.62554 8.014701 49.117203-231.352233-8.62554-8.014701-49.117203 231.352233z" fill="#6E6E96" p-id="4516"></path><path d="M872.356181 549.164844l7.215281-7.21938 19.128693 17.767629-9.703733 9.703732-248.279444-1.566044-17.001005-16.996905z" fill="#A7A7C2" p-id="4517"></path><path d="M888.996422 575.566212h-0.040996l-248.279444-1.570143a6.157586 6.157586 0 0 1-4.308671-1.799721l-16.996905-16.996905a6.145287 6.145287 0 0 1 4.30867-10.499053l246.110761-1.672634 5.431959-5.431958a6.141188 6.141188 0 0 1 8.531249-0.155785l19.128693 17.767629a6.157586 6.157586 0 0 1 0.163983 8.851017l-9.699632 9.703733c-1.151985 1.156085-2.718029 1.80382-4.349667 1.80382z m-245.7172-13.848419l243.187753 1.537347 3.369864-3.373964-10.109592-9.392164-3.025499 3.025499a6.145287 6.145287 0 0 1-4.30867 1.79972l-233.930876 1.590642 4.81702 4.81292z" fill="#6E6E96" p-id="4518"></path></svg>